<mxfile host="app.diagrams.net" modified="2024-01-03T01:52:33.508Z" agent="Mozilla/5.0 (Windows NT 10.0; Win64; x64) AppleWebKit/537.36 (KHTML, like Gecko) Chrome/120.0.0.0 Safari/537.36 Edg/120.0.0.0" etag="phMO817FgSipyzCKjIBP" version="22.1.16" type="github">
  <diagram name="Page-1" id="zMMqass-vUFqu2zUfOYs">
    <mxGraphModel dx="786" dy="505" grid="1" gridSize="10" guides="1" tooltips="1" connect="1" arrows="1" fold="1" page="1" pageScale="1" pageWidth="827" pageHeight="1169" math="0" shadow="0">
      <root>
        <mxCell id="0" />
        <mxCell id="1" parent="0" />
        <mxCell id="Xu1dZrEa-9eEMJTha2Xv-1" value="&lt;font style=&quot;font-size: 18px;&quot;&gt;视频播放&lt;/font&gt;" style="rounded=0;whiteSpace=wrap;html=1;" parent="1" vertex="1">
          <mxGeometry x="80" y="120" width="120" height="60" as="geometry" />
        </mxCell>
        <mxCell id="Xu1dZrEa-9eEMJTha2Xv-2" value="&lt;font style=&quot;font-size: 18px;&quot;&gt;点击下载落地页&lt;/font&gt;" style="rounded=0;whiteSpace=wrap;html=1;" parent="1" vertex="1">
          <mxGeometry x="270" y="120" width="120" height="60" as="geometry" />
        </mxCell>
        <mxCell id="Xu1dZrEa-9eEMJTha2Xv-3" value="&lt;font style=&quot;font-size: 18px;&quot;&gt;点击下载按钮&lt;/font&gt;" style="rounded=0;whiteSpace=wrap;html=1;" parent="1" vertex="1">
          <mxGeometry x="460" y="120" width="120" height="60" as="geometry" />
        </mxCell>
        <mxCell id="Xu1dZrEa-9eEMJTha2Xv-4" value="&lt;font style=&quot;font-size: 18px;&quot;&gt;下载完成&lt;/font&gt;" style="rounded=0;whiteSpace=wrap;html=1;" parent="1" vertex="1">
          <mxGeometry x="460" y="240" width="120" height="60" as="geometry" />
        </mxCell>
        <mxCell id="Xu1dZrEa-9eEMJTha2Xv-5" value="&lt;font style=&quot;font-size: 18px;&quot;&gt;安装完成&lt;/font&gt;" style="rounded=0;whiteSpace=wrap;html=1;" parent="1" vertex="1">
          <mxGeometry x="270" y="240" width="120" height="60" as="geometry" />
        </mxCell>
        <mxCell id="Xu1dZrEa-9eEMJTha2Xv-6" value="&lt;font style=&quot;font-size: 18px;&quot;&gt;活跃用户&lt;/font&gt;" style="rounded=0;whiteSpace=wrap;html=1;" parent="1" vertex="1">
          <mxGeometry x="80" y="240" width="120" height="60" as="geometry" />
        </mxCell>
        <mxCell id="Xu1dZrEa-9eEMJTha2Xv-11" value="" style="endArrow=classic;html=1;rounded=0;entryX=0;entryY=0.5;entryDx=0;entryDy=0;exitX=1;exitY=0.5;exitDx=0;exitDy=0;" parent="1" source="Xu1dZrEa-9eEMJTha2Xv-1" target="Xu1dZrEa-9eEMJTha2Xv-2" edge="1">
          <mxGeometry width="50" height="50" relative="1" as="geometry">
            <mxPoint x="200" y="240" as="sourcePoint" />
            <mxPoint x="250" y="190" as="targetPoint" />
          </mxGeometry>
        </mxCell>
        <mxCell id="Xu1dZrEa-9eEMJTha2Xv-12" value="&lt;p class=&quot;MsoNormal&quot;&gt;&lt;font style=&quot;font-size: 18px;&quot;&gt;5.98%&lt;/font&gt;&lt;/p&gt;" style="text;html=1;align=center;verticalAlign=middle;resizable=0;points=[];autosize=1;strokeColor=none;fillColor=none;" parent="1" vertex="1">
          <mxGeometry x="200" y="110" width="70" height="60" as="geometry" />
        </mxCell>
        <mxCell id="Xu1dZrEa-9eEMJTha2Xv-14" value="" style="endArrow=classic;html=1;rounded=0;exitX=1;exitY=0.5;exitDx=0;exitDy=0;entryX=0;entryY=0.5;entryDx=0;entryDy=0;" parent="1" target="Xu1dZrEa-9eEMJTha2Xv-3" edge="1" source="Xu1dZrEa-9eEMJTha2Xv-2">
          <mxGeometry width="50" height="50" relative="1" as="geometry">
            <mxPoint x="310" y="230" as="sourcePoint" />
            <mxPoint x="440" y="150" as="targetPoint" />
          </mxGeometry>
        </mxCell>
        <mxCell id="Xu1dZrEa-9eEMJTha2Xv-16" value="" style="endArrow=classic;html=1;rounded=0;entryX=0.5;entryY=0;entryDx=0;entryDy=0;exitX=0.5;exitY=1;exitDx=0;exitDy=0;" parent="1" target="Xu1dZrEa-9eEMJTha2Xv-4" edge="1" source="Xu1dZrEa-9eEMJTha2Xv-3">
          <mxGeometry width="50" height="50" relative="1" as="geometry">
            <mxPoint x="310" y="350" as="sourcePoint" />
            <mxPoint x="360" y="300" as="targetPoint" />
          </mxGeometry>
        </mxCell>
        <mxCell id="Xu1dZrEa-9eEMJTha2Xv-17" value="" style="endArrow=classic;html=1;rounded=0;entryX=1;entryY=0.5;entryDx=0;entryDy=0;exitX=0;exitY=0.5;exitDx=0;exitDy=0;" parent="1" target="Xu1dZrEa-9eEMJTha2Xv-5" edge="1" source="Xu1dZrEa-9eEMJTha2Xv-4">
          <mxGeometry width="50" height="50" relative="1" as="geometry">
            <mxPoint x="310" y="470" as="sourcePoint" />
            <mxPoint x="360" y="420" as="targetPoint" />
          </mxGeometry>
        </mxCell>
        <mxCell id="Xu1dZrEa-9eEMJTha2Xv-18" value="" style="endArrow=classic;html=1;rounded=0;entryX=1;entryY=0.5;entryDx=0;entryDy=0;exitX=0;exitY=0.5;exitDx=0;exitDy=0;" parent="1" target="Xu1dZrEa-9eEMJTha2Xv-6" edge="1" source="Xu1dZrEa-9eEMJTha2Xv-5">
          <mxGeometry width="50" height="50" relative="1" as="geometry">
            <mxPoint x="310" y="585" as="sourcePoint" />
            <mxPoint x="360" y="535" as="targetPoint" />
          </mxGeometry>
        </mxCell>
        <mxCell id="Xu1dZrEa-9eEMJTha2Xv-19" value="&lt;p class=&quot;MsoNormal&quot;&gt;&lt;font style=&quot;font-size: 18px;&quot;&gt;6.64%&lt;/font&gt;&lt;/p&gt;" style="text;html=1;align=center;verticalAlign=middle;resizable=0;points=[];autosize=1;strokeColor=none;fillColor=none;" parent="1" vertex="1">
          <mxGeometry x="380" y="110" width="70" height="60" as="geometry" />
        </mxCell>
        <mxCell id="Xu1dZrEa-9eEMJTha2Xv-20" value="&lt;p class=&quot;MsoNormal&quot;&gt;&lt;font style=&quot;font-size: 18px;&quot;&gt;88.53%&lt;/font&gt;&lt;/p&gt;" style="text;html=1;align=center;verticalAlign=middle;resizable=0;points=[];autosize=1;strokeColor=none;fillColor=none;" parent="1" vertex="1">
          <mxGeometry x="520" y="180" width="80" height="60" as="geometry" />
        </mxCell>
        <mxCell id="Xu1dZrEa-9eEMJTha2Xv-21" value="&lt;p class=&quot;MsoNormal&quot;&gt;&lt;font style=&quot;font-size: 18px;&quot;&gt;16.73%&lt;/font&gt;&lt;/p&gt;" style="text;html=1;align=center;verticalAlign=middle;resizable=0;points=[];autosize=1;strokeColor=none;fillColor=none;" parent="1" vertex="1">
          <mxGeometry x="370" y="230" width="80" height="60" as="geometry" />
        </mxCell>
        <mxCell id="Xu1dZrEa-9eEMJTha2Xv-22" value="&lt;p class=&quot;MsoNormal&quot;&gt;&lt;font style=&quot;font-size: 18px;&quot;&gt;68.14%&lt;/font&gt;&lt;/p&gt;" style="text;html=1;align=center;verticalAlign=middle;resizable=0;points=[];autosize=1;strokeColor=none;fillColor=none;" parent="1" vertex="1">
          <mxGeometry x="195" y="230" width="80" height="60" as="geometry" />
        </mxCell>
      </root>
    </mxGraphModel>
  </diagram>
</mxfile>
